<svg version="1.0" xmlns="http://www.w3.org/2000/svg" width="682.667" height="682.667" viewBox="0 0 512 512"><path d="M0 256v256h512V0H0v256zm153.8-103.4c32.6 6.7 53.4 27.4 55.9 55.6l.6 6.8H167v-3.5c0-5.7-3.7-14-7.9-17.8-6.3-5.7-13.9-8-25.6-8-9 0-10.7.3-16.5 3-4.3 1.9-7.9 4.5-10.3 7.3-2 2.4-3.5 4.5-3.3 4.7.2.3 0 1.9-.5 3.6-2.8 9.8 3.1 18.3 17.5 25.1 5 2.4 10.7 4.9 12.6 5.5 3.2.9 19 6.4 28.5 9.8 6.3 2.3 20.5 10.3 26.8 15.1 8 6.1 14.1 14.2 17.9 23.7 3.1 7.6 3.3 8.7 3.3 21s-.2 13.4-3.3 21.1c-7.7 19.2-28 31.8-56.8 35.5-29.8 3.7-63.3-6.5-80.2-24.5-7.6-8.2-13.8-20.6-14.7-29.6-.3-3.6-.8-8-1.2-9.8l-.5-3.2H96v4c0 10.5 8.4 22.1 18.9 26.1 11 4.1 21.1 4.8 32.1 2.3 12.5-2.8 18.8-9 19.8-19.5.6-6.2-2-14.8-5.5-18.1-4.2-3.9-15-9.3-27.6-13.7-6.2-2.2-14.5-5.1-18.4-6.5C77.9 255.2 60 236 59.8 209c-.2-15.1 4.6-26.7 15.1-37 9.6-9.4 21.2-15.1 38.6-19 10.5-2.4 29.9-2.5 40.3-.4zm140.5 3.1c.3 1 2.6 7.6 5.1 14.8 2.6 7.1 6.6 18.6 9 25.5 2.4 6.9 5.1 14.1 6 16.1.8 2 1.8 5.1 2.1 6.9.3 1.8 1 4.1 1.5 5 1.6 3 6 15.2 7.6 20.9.8 3 1.9 6 2.3 6.5.5.6 2.7 6.5 4.9 13.1 2.3 6.6 5.9 17.1 8.1 23.4 2.3 6.3 4.1 11.7 4.1 12 .1 1.3 4.9-10.8 5.4-13.5.3-1.6 1.2-4.5 2-6.4 2.1-5 6-15.7 7.9-21.5.8-2.8 2.9-8.5 4.5-12.8 1.7-4.2 2.8-7.7 2.6-7.7-.2 0 .6-2.4 1.7-5.3 1.2-2.8 4.1-10.8 6.5-17.7 2.4-6.9 6.9-19.5 9.9-28 3.1-8.5 6.2-17.5 7-20 .7-2.5 2.1-6.4 3-8.8l1.7-4.2H453v205l-21.2-.2-21.3-.3-.3-31.5c-.2-21.7.4-44.5 1.8-73.4 1.2-23 1.9-42 1.7-42.2-.2-.3-1.5 2.8-2.7 6.8-1.3 4-3.8 11-5.7 15.6-1.8 4.5-3.5 9.2-3.7 10.5-.3 1.2-2.3 6.9-4.6 12.7-2.3 5.8-4.4 11.6-4.7 13-.2 1.3-1 3.8-1.8 5.5-2.3 4.9-5.6 13.8-6.1 16.4-.3 1.3-1.5 4.9-2.8 8-1.3 3.1-4.1 10.5-6.1 16.6-2.1 6-4.1 11.4-4.5 12-.5.5-1.7 3.9-2.8 7.5-1.1 3.6-3.4 10.2-5.2 14.8l-3.2 8.3-14.6-.3-14.6-.3-2.4-6c-1.3-3.3-2.6-7.1-2.9-8.5-.2-1.3-1-3.8-1.8-5.5-2.4-5.3-6.6-16.3-7-18.4-.2-1.2-1.9-6-3.8-10.8-1.9-4.9-4.5-12-5.7-15.8-1.2-3.9-2.6-7.5-3-8-.4-.6-2-4.8-3.5-9.5s-4.1-11.9-5.7-16c-1.7-4.1-3.2-8.4-3.4-9.5-.2-1.1-1-3.6-1.8-5.5-3.2-7.6-6.8-17.1-7.2-19.2-.2-1.3-1.5-5-2.9-8.3l-2.5-6v6c0 3.3.9 23.5 2 45 1.1 21.4 2 51.9 2 67.7V359h-43V154h27.9c25.7 0 27.9.1 28.4 1.7z"/></svg>