<svg xmlns="http://www.w3.org/2000/svg" width="512" height="512" viewBox="0 0 64 64"><path xmlns="http://www.w3.org/2000/svg" d="M55.817 33H63a1 1 0 100-2h-7.183a2.989 2.989 0 00-1.815-1.815V22h3a1 1 0 100-2h-.28l-.334-1.002h2.604c1.654 0 3-1.346 3-3V7.005c0-1.654-1.346-3-3-3H47.01c-1.654 0-3 1.346-3 3v8.993c0 1.654 1.346 3 3 3h2.606L49.282 20h-.278a1 1 0 100 2h2.998v7.185A2.989 2.989 0 0050.187 31H44v-4.99l.002-.01v-3.003a1 1 0 00-1-1h-13.97l-.061-.243a1 1 0 00-.97-.758h-7.004a1 1 0 00-1 1.001L20 31h-6.185A2.989 2.989 0 0012 29.185V22h3a1 1 0 100-2h-.28l-.334-1.002h2.606c1.654 0 3-1.346 3-3V7.005c0-1.654-1.346-3-3-3H5.01c-1.654 0-3 1.346-3 3v8.993c0 1.654 1.346 3 3 3h2.604L7.28 20h-.278a1 1 0 100 2H10v7.185A2.984 2.984 0 008.185 31H1a1 1 0 100 2h7.185A2.989 2.989 0 0010 34.815V42H5.01c-1.654 0-3 1.346-3 3v8.993c0 1.654 1.346 3 3 3h2.604l-.334 1.002h-.278a1 1 0 100 2H15a1 1 0 100-2h-.28l-.334-1.002h2.606c1.654 0 3-1.346 3-3V45c0-1.654-1.346-3-3-3H12v-7.185A2.989 2.989 0 0013.815 33H20l.002 7a1 1 0 001 1H43a1 1 0 001-1v-7h6.187a2.989 2.989 0 001.815 1.815V42H47.01c-1.654 0-3 1.346-3 3v8.993c0 1.654 1.346 3 3 3h2.606l-.334 1.002h-.278a1 1 0 100 2h7.998a1 1 0 100-2h-.28l-.334-1.002h2.604c1.654 0 3-1.346 3-3V45c0-1.654-1.346-3-3-3h-4.99v-7.185A2.984 2.984 0 0055.817 33zM47.01 6.005h11.982a1 1 0 011 1v6.994H46.01V7.005a1 1 0 011-1zm-1 9.994h13.982a1 1 0 01-1 .999H47.01a1 1 0 01-1-.999zm5.715 2.999h2.555L54.614 20h-1.598l-.015-.003c-.005 0-.009.003-.014.003H51.39zM5.01 6.005h11.982a1 1 0 011 1v6.994H4.01V7.005a1 1 0 011-1zm-1 9.994h13.982a1 1 0 01-1 .999H5.01a1 1 0 01-1-.999zm5.713 2.999h2.555L12.612 20h-1.598l-.015-.003c-.005 0-.009.003-.014.003H9.388zm2.889 38.997H9.388l.335-1.002h2.555zm4.38-3.002H5.01a1 1 0 01-1-.999h13.982a1 1 0 01-1 .999zm1-9.993v6.994H4.01V45a1 1 0 011-1h5.966c.009 0 .016.005.024.005s.016-.005.024-.005h5.968a1 1 0 011 1zm-6.99-12L11 32.999l-.002.001a.999.999 0 01-.006-1.998l.008.001.008-.001A.999.999 0 0111.002 33zm31-9.003V25H29.783l-.251-1.003zM42 39H22.002l-.003-16.004h5.222l.812 3.246a1 1 0 00.97.758H42zm12.614 18.995H51.39l.335-1.002h2.555zm4.378-3.002H47.01a1 1 0 01-1-.999h13.982a1 1 0 01-1 .999zm1-9.993v6.994H46.01V45a1 1 0 011-1h5.968c.009 0 .016.005.024.005s.016-.005.024-.005h5.966a1 1 0 011 1zm-6.998-13.998l.008.001.008-.001A.999.999 0 0153.004 33l-.002-.001L53 33a.999.999 0 01-.006-1.998z" fill="#fff" data-original="#000000"/></svg>