<?xml version="1.0" standalone="no"?>
<!DOCTYPE svg PUBLIC "-//W3C//DTD SVG 20010904//EN"
 "http://www.w3.org/TR/2001/REC-SVG-20010904/DTD/svg10.dtd">
<svg version="1.0" xmlns="http://www.w3.org/2000/svg"
 width="512.000000pt" height="512.000000pt" viewBox="0 0 512.000000 512.000000"
 preserveAspectRatio="xMidYMid meet">
<metadata>
Created by potrace 1.14, written by Peter Selinger 2001-2017
</metadata>
<g transform="translate(0.000000,512.000000) scale(0.100000,-0.100000)"
fill="#000000" stroke="none">
<path d="M0 2560 l0 -2560 2560 0 2560 0 0 2560 0 2560 -2560 0 -2560 0 0
-2560z m1538 1034 c326 -67 534 -274 559 -556 l6 -68 -217 0 -216 0 0 35 c0
57 -37 140 -79 178 -63 57 -139 80 -256 80 -90 0 -107 -3 -165 -30 -43 -19
-79 -45 -103 -73 -20 -24 -35 -45 -33 -47 2 -3 0 -19 -5 -36 -28 -98 31 -183
175 -251 50 -24 107 -49 126 -55 32 -9 190 -64 285 -98 63 -23 205 -103 268
-151 80 -61 141 -142 179 -237 31 -76 33 -87 33 -210 0 -123 -2 -134 -33 -211
-77 -192 -280 -318 -568 -355 -298 -37 -633 65 -802 245 -76 82 -138 206 -147
296 -3 36 -8 80 -12 98 l-5 32 216 0 216 0 0 -40 c0 -105 84 -221 189 -261
110 -41 211 -48 321 -23 125 28 188 90 198 195 6 62 -20 148 -55 181 -42 39
-150 93 -276 137 -62 22 -145 51 -184 65 -374 134 -553 326 -555 596 -2 151
46 267 151 370 96 94 212 151 386 190 105 24 299 25 403 4z m1405 -31 c3 -10
26 -76 51 -148 26 -71 66 -186 90 -255 24 -69 51 -141 60 -161 8 -20 18 -51
21 -69 3 -18 10 -41 15 -50 16 -30 60 -152 76 -209 8 -30 19 -60 23 -65 5 -6
27 -65 49 -131 23 -66 59 -171 81 -234 23 -63 41 -117 41 -120 1 -13 49 108
54 135 3 16 12 45 20 64 21 50 60 157 79 215 8 28 29 85 45 128 17 42 28 77
26 77 -2 0 6 24 17 53 12 28 41 108 65 177 24 69 69 195 99 280 31 85 62 175
70 200 7 25 21 64 30 88 l17 42 279 0 279 0 0 -1025 0 -1025 -212 2 -213 3 -3
315 c-2 217 4 445 18 734 12 230 19 420 17 422 -2 3 -15 -28 -27 -68 -13 -40
-38 -110 -57 -156 -18 -45 -35 -92 -37 -105 -3 -12 -23 -69 -46 -127 -23 -58
-44 -116 -47 -130 -2 -13 -10 -38 -18 -55 -23 -49 -56 -138 -61 -164 -3 -13
-15 -49 -28 -80 -13 -31 -41 -105 -61 -166 -21 -60 -41 -114 -45 -120 -5 -5
-17 -39 -28 -75 -11 -36 -34 -102 -52 -148 l-32 -83 -146 3 -146 3 -24 60
c-13 33 -26 71 -29 85 -2 13 -10 38 -18 55 -24 53 -66 163 -70 184 -2 12 -19
60 -38 108 -19 49 -45 120 -57 158 -12 39 -26 75 -30 80 -4 6 -20 48 -35 95
-15 47 -41 119 -57 160 -17 41 -32 84 -34 95 -2 11 -10 36 -18 55 -32 76 -68
171 -72 192 -2 13 -15 50 -29 83 l-25 60 0 -60 c0 -33 9 -235 20 -450 11 -214
20 -519 20 -677 l0 -288 -215 0 -215 0 0 1025 0 1025 279 0 c257 0 279 -1 284
-17z"/>
</g>
</svg>
